<?xml version="1.0" encoding="UTF-8"?>
<!-- This file is generated by a script -->
<svg xmlns="http://www.w3.org/2000/svg" xmlns:xlink="http://www.w3.org/1999/xlink" width="0" height="0">
<defs>
<symbol fill="currentColor" class="bi bi-chat-fill" viewBox="0 0 16 16" id="chat-fill">
  <path d="M8 15c4.418 0 8-3.134 8-7s-3.582-7-8-7-8 3.134-8 7c0 1.76.743 3.37 1.97 4.6-.097 1.016-.417 2.13-.771 2.966-.079.186.074.394.273.362 2.256-.37 3.597-.938 4.18-1.234A9 9 0 0 0 8 15"></path>
</symbol>
<symbol fill="currentColor" class="bi bi-chevron-down" viewBox="0 0 16 16" id="chevron-down">
  <path fill-rule="evenodd" d="M1.646 4.646a.5.5 0 0 1 .708 0L8 10.293l5.646-5.647a.5.5 0 0 1 .708.708l-6 6a.5.5 0 0 1-.708 0l-6-6a.5.5 0 0 1 0-.708"></path>
</symbol>
<symbol fill="currentColor" class="bi bi-chevron-left" viewBox="0 0 16 16" id="chevron-left">
  <path fill-rule="evenodd" d="M11.354 1.646a.5.5 0 0 1 0 .708L5.707 8l5.647 5.646a.5.5 0 0 1-.708.708l-6-6a.5.5 0 0 1 0-.708l6-6a.5.5 0 0 1 .708 0"></path>
</symbol>
<symbol fill="currentColor" class="bi bi-chevron-right" viewBox="0 0 16 16" id="chevron-right">
  <path fill-rule="evenodd" d="M4.646 1.646a.5.5 0 0 1 .708 0l6 6a.5.5 0 0 1 0 .708l-6 6a.5.5 0 0 1-.708-.708L10.293 8 4.646 2.354a.5.5 0 0 1 0-.708"></path>
</symbol>
<symbol fill="currentColor" class="bi bi-chevron-up" viewBox="0 0 16 16" id="chevron-up">
  <path fill-rule="evenodd" d="M7.646 4.646a.5.5 0 0 1 .708 0l6 6a.5.5 0 0 1-.708.708L8 5.707l-5.646 5.647a.5.5 0 0 1-.708-.708z"></path>
</symbol>
<symbol viewBox="0 0 24 24" id="discover"><path fill="currentColor" d="M12 2C6.486 2 2 6.486 2 12s4.486 10 10 10s10-4.486 10-10S17.514 2 12 2m3 13l-8 2l2-8l8-2z"></path><circle cx="12" cy="12" r="2" fill="currentColor"></circle></symbol>
<symbol fill="currentColor" class="bi bi-facebook" viewBox="0 0 16 16" id="facebook">
  <path d="M16 8.049c0-4.446-3.582-8.05-8-8.05C3.58 0-.002 3.603-.002 8.05c0 4.017 2.926 7.347 6.75 7.951v-5.625h-2.03V8.05H6.75V6.275c0-2.017 1.195-3.131 3.022-3.131.876 0 1.791.157 1.791.157v1.98h-1.009c-.993 0-1.303.621-1.303 1.258v1.51h2.218l-.354 2.326H9.25V16c3.824-.604 6.75-3.934 6.75-7.951"></path>
</symbol>
<symbol viewBox="0 0 24 24" id="folder-fill">
  
  <path fill="currentColor" d="M4 20q-.825 0-1.412-.587T2 18V6q0-.825.588-1.412T4 4h5.175q.4 0 .763.15t.637.425L12 6h8q.825 0 1.413.588T22 8v10q0 .825-.587 1.413T20 20z"></path>
</symbol>
<symbol fill="currentColor" class="bi bi-gear-fill" viewBox="0 0 16 16" id="gear-fill">
  <path d="M9.405 1.05c-.413-1.4-2.397-1.4-2.81 0l-.1.34a1.464 1.464 0 0 1-2.105.872l-.31-.17c-1.283-.698-2.686.705-1.987 1.987l.169.311c.446.82.023 1.841-.872 2.105l-.34.1c-1.4.413-1.4 2.397 0 2.81l.34.1a1.464 1.464 0 0 1 .872 2.105l-.17.31c-.698 1.283.705 2.686 1.987 1.987l.311-.169a1.464 1.464 0 0 1 2.105.872l.1.34c.413 1.4 2.397 1.4 2.81 0l.1-.34a1.464 1.464 0 0 1 2.105-.872l.31.17c1.283.698 2.686-.705 1.987-1.987l-.169-.311a1.464 1.464 0 0 1 .872-2.105l.34-.1c1.4-.413 1.4-2.397 0-2.81l-.34-.1a1.464 1.464 0 0 1-.872-2.105l.17-.31c.698-1.283-.705-2.686-1.987-1.987l-.311.169a1.464 1.464 0 0 1-2.105-.872zM8 10.93a2.929 2.929 0 1 1 0-5.86 2.929 2.929 0 0 1 0 5.858z"></path>
</symbol>
<symbol fill="currentColor" class="bi bi-gift-fill" viewBox="0 0 16 16" id="gift-fill">
  <path d="M3 2.5a2.5 2.5 0 0 1 5 0 2.5 2.5 0 0 1 5 0v.006c0 .07 0 .27-.038.494H15a1 1 0 0 1 1 1v1a1 1 0 0 1-1 1H1a1 1 0 0 1-1-1V4a1 1 0 0 1 1-1h2.038A3 3 0 0 1 3 2.506zm1.068.5H7v-.5a1.5 1.5 0 1 0-3 0c0 .085.002.274.045.43zM9 3h2.932l.023-.07c.043-.156.045-.345.045-.43a1.5 1.5 0 0 0-3 0zm6 4v7.5a1.5 1.5 0 0 1-1.5 1.5H9V7zM2.5 16A1.5 1.5 0 0 1 1 14.5V7h6v9z"></path>
</symbol>
<symbol fill="currentColor" class="bi bi-headphones" viewBox="0 0 16 16" id="headphones">
  <path d="M8 3a5 5 0 0 0-5 5v1h1a1 1 0 0 1 1 1v3a1 1 0 0 1-1 1H3a1 1 0 0 1-1-1V8a6 6 0 1 1 12 0v5a1 1 0 0 1-1 1h-1a1 1 0 0 1-1-1v-3a1 1 0 0 1 1-1h1V8a5 5 0 0 0-5-5"></path>
</symbol>
<symbol viewBox="3 3 18 18" id="inbox-fill">
   
  <g fill="none" fill-rule="evenodd">
    <path d="m12.593 23.258l-.011.002l-.071.035l-.02.004l-.014-.004l-.071-.035q-.016-.005-.024.005l-.004.01l-.017.428l.005.02l.01.013l.104.074l.015.004l.012-.004l.104-.074l.012-.016l.004-.017l-.017-.427q-.004-.016-.017-.018m.265-.113l-.013.002l-.185.093l-.01.01l-.003.011l.018.43l.005.012l.008.007l.201.093q.019.005.029-.008l.004-.014l-.034-.614q-.005-.018-.02-.022m-.715.002a.02.02 0 0 0-.027.006l-.006.014l-.034.614q.001.018.017.024l.015-.002l.201-.093l.01-.008l.004-.011l.017-.43l-.003-.012l-.01-.01z"></path>
    <path fill="currentColor" d="M3 6a3 3 0 0 1 3-3h12a3 3 0 0 1 3 3v12a3 3 0 0 1-3 3H6a3 3 0 0 1-3-3zm11 8a1 1 0 0 1 1-1h4V6a1 1 0 0 0-1-1H6a1 1 0 0 0-1 1v7h4a1 1 0 0 1 1 1a2 2 0 1 0 4 0"></path>
  </g>
</symbol>
<symbol fill="currentColor" class="bi bi-instagram" viewBox="0 0 16 16" id="instagram">
  <path d="M8 0C5.829 0 5.556.01 4.703.048 3.85.088 3.269.222 2.76.42a3.9 3.9 0 0 0-1.417.923A3.9 3.9 0 0 0 .42 2.76C.222 3.268.087 3.85.048 4.7.01 5.555 0 5.827 0 8.001c0 2.172.01 2.444.048 3.297.04.852.174 1.433.372 1.942.205.526.478.972.923 1.417.444.445.89.719 1.416.923.51.198 1.09.333 1.942.372C5.555 15.99 5.827 16 8 16s2.444-.01 3.298-.048c.851-.04 1.434-.174 1.943-.372a3.9 3.9 0 0 0 1.416-.923c.445-.445.718-.891.923-1.417.197-.509.332-1.09.372-1.942C15.99 10.445 16 10.173 16 8s-.01-2.445-.048-3.299c-.04-.851-.175-1.433-.372-1.941a3.9 3.9 0 0 0-.923-1.417A3.9 3.9 0 0 0 13.24.42c-.51-.198-1.092-.333-1.943-.372C10.443.01 10.172 0 7.998 0zm-.717 1.442h.718c2.136 0 2.389.007 3.232.046.78.035 1.204.166 1.486.275.373.145.64.319.92.599s.453.546.598.92c.11.281.24.705.275 1.485.039.843.047 1.096.047 3.231s-.008 2.389-.047 3.232c-.035.78-.166 1.203-.275 1.485a2.5 2.5 0 0 1-.599.919c-.28.28-.546.453-.92.598-.28.11-.704.24-1.485.276-.843.038-1.096.047-3.232.047s-2.39-.009-3.233-.047c-.78-.036-1.203-.166-1.485-.276a2.5 2.5 0 0 1-.92-.598 2.5 2.5 0 0 1-.6-.92c-.109-.281-.24-.705-.275-1.485-.038-.843-.046-1.096-.046-3.233s.008-2.388.046-3.231c.036-.78.166-1.204.276-1.486.145-.373.319-.64.599-.92s.546-.453.92-.598c.282-.11.705-.24 1.485-.276.738-.034 1.024-.044 2.515-.045zm4.988 1.328a.96.96 0 1 0 0 1.92.96.96 0 0 0 0-1.92m-4.27 1.122a4.109 4.109 0 1 0 0 8.217 4.109 4.109 0 0 0 0-8.217m0 1.441a2.667 2.667 0 1 1 0 5.334 2.667 2.667 0 0 1 0-5.334"></path>
</symbol>
<symbol fill="currentColor" class="bi bi-mic-fill" viewBox="0 0 16 16" id="mic-fill">
  <path d="M5 3a3 3 0 0 1 6 0v5a3 3 0 0 1-6 0z"></path>
  <path d="M3.5 6.5A.5.5 0 0 1 4 7v1a4 4 0 0 0 8 0V7a.5.5 0 0 1 1 0v1a5 5 0 0 1-4.5 4.975V15h3a.5.5 0 0 1 0 1h-7a.5.5 0 0 1 0-1h3v-2.025A5 5 0 0 1 3 8V7a.5.5 0 0 1 .5-.5"></path>
</symbol>
<symbol fill="currentColor" class="bi bi-mic-mute" viewBox="0 0 16 16" id="mic-mute">
  <path d="M13 8c0 .564-.094 1.107-.266 1.613l-.814-.814A4 4 0 0 0 12 8V7a.5.5 0 0 1 1 0zm-5 4c.818 0 1.578-.245 2.212-.667l.718.719a5 5 0 0 1-2.43.923V15h3a.5.5 0 0 1 0 1h-7a.5.5 0 0 1 0-1h3v-2.025A5 5 0 0 1 3 8V7a.5.5 0 0 1 1 0v1a4 4 0 0 0 4 4m3-9v4.879l-1-1V3a2 2 0 0 0-3.997-.118l-.845-.845A3.001 3.001 0 0 1 11 3"></path>
  <path d="m9.486 10.607-.748-.748A2 2 0 0 1 6 8v-.878l-1-1V8a3 3 0 0 0 4.486 2.607m-7.84-9.253 12 12 .708-.708-12-12z"></path>
</symbol>
<symbol fill="currentColor" class="bi bi-person-circle" viewBox="0 0 16 16" id="person-circle">
  <path d="M11 6a3 3 0 1 1-6 0 3 3 0 0 1 6 0"></path>
  <path fill-rule="evenodd" d="M0 8a8 8 0 1 1 16 0A8 8 0 0 1 0 8m8-7a7 7 0 0 0-5.468 11.37C3.242 11.226 4.805 10 8 10s4.757 1.225 5.468 2.37A7 7 0 0 0 8 1"></path>
</symbol>
<symbol fill="currentColor" class="bi bi-person-fill-add" viewBox="0 0 16 16" id="person-fill-add">
  <path d="M12.5 16a3.5 3.5 0 1 0 0-7 3.5 3.5 0 0 0 0 7m.5-5v1h1a.5.5 0 0 1 0 1h-1v1a.5.5 0 0 1-1 0v-1h-1a.5.5 0 0 1 0-1h1v-1a.5.5 0 0 1 1 0m-2-6a3 3 0 1 1-6 0 3 3 0 0 1 6 0"></path>
  <path d="M2 13c0 1 1 1 1 1h5.256A4.5 4.5 0 0 1 8 12.5a4.5 4.5 0 0 1 1.544-3.393Q8.844 9.002 8 9c-5 0-6 3-6 4"></path>
</symbol>
<symbol viewBox="0 0 24 24" id="person-greeting">
  
  <path fill="currentColor" d="M1.5 4v1.5c0 4.15 2.21 7.78 5.5 9.8V20h15v-2c0-2.66-5.33-4-8-4h-.25C9 14 5 10 5 5.5V4m9 0a4 4 0 0 0-4 4a4 4 0 0 0 4 4a4 4 0 0 0 4-4a4 4 0 0 0-4-4"></path>
</symbol>
<symbol fill="currentColor" class="bi bi-plus-circle-fill" viewBox="0 0 16 16" id="plus-circle-fill">
  <path d="M16 8A8 8 0 1 1 0 8a8 8 0 0 1 16 0M8.5 4.5a.5.5 0 0 0-1 0v3h-3a.5.5 0 0 0 0 1h3v3a.5.5 0 0 0 1 0v-3h3a.5.5 0 0 0 0-1h-3z"></path>
</symbol>
<symbol fill="currentColor" class="bi bi-plus-lg" viewBox="0 0 16 16" id="plus-lg">
  <path fill-rule="evenodd" d="M8 2a.5.5 0 0 1 .5.5v5h5a.5.5 0 0 1 0 1h-5v5a.5.5 0 0 1-1 0v-5h-5a.5.5 0 0 1 0-1h5v-5A.5.5 0 0 1 8 2"></path>
</symbol>
<symbol fill="currentColor" class="bi bi-question-circle-fill" viewBox="0 0 16 16" id="question-circle-fill">
  <path d="M16 8A8 8 0 1 1 0 8a8 8 0 0 1 16 0M5.496 6.033h.825c.138 0 .248-.113.266-.25.09-.656.54-1.134 1.342-1.134.686 0 1.314.343 1.314 1.168 0 .635-.374.927-.965 1.371-.673.489-1.206 1.06-1.168 1.987l.003.217a.25.25 0 0 0 .25.246h.811a.25.25 0 0 0 .25-.25v-.105c0-.718.273-.927 1.01-1.486.609-.463 1.244-.977 1.244-2.056 0-1.511-1.276-2.241-2.673-2.241-1.267 0-2.655.59-2.75 2.286a.237.237 0 0 0 .241.247m2.325 6.443c.61 0 1.029-.394 1.029-.927 0-.552-.42-.94-1.029-.94-.584 0-1.009.388-1.009.94 0 .533.425.927 1.01.927z"></path>
</symbol>
<symbol fill="currentColor" class="bi bi-search" viewBox="0 0 16 16" id="search">
  <path d="M11.742 10.344a6.5 6.5 0 1 0-1.397 1.398h-.001q.044.06.098.115l3.85 3.85a1 1 0 0 0 1.415-1.414l-3.85-3.85a1 1 0 0 0-.115-.1zM12 6.5a5.5 5.5 0 1 1-11 0 5.5 5.5 0 0 1 11 0"></path>
</symbol>
<symbol fill="currentColor" class="bi bi-shop" viewBox="0 0 16 16" id="shop">
  <path d="M2.97 1.35A1 1 0 0 1 3.73 1h8.54a1 1 0 0 1 .76.35l2.609 3.044A1.5 1.5 0 0 1 16 5.37v.255a2.375 2.375 0 0 1-4.25 1.458A2.37 2.37 0 0 1 9.875 8 2.37 2.37 0 0 1 8 7.083 2.37 2.37 0 0 1 6.125 8a2.37 2.37 0 0 1-1.875-.917A2.375 2.375 0 0 1 0 5.625V5.37a1.5 1.5 0 0 1 .361-.976zm1.78 4.275a1.375 1.375 0 0 0 2.75 0 .5.5 0 0 1 1 0 1.375 1.375 0 0 0 2.75 0 .5.5 0 0 1 1 0 1.375 1.375 0 1 0 2.75 0V5.37a.5.5 0 0 0-.12-.325L12.27 2H3.73L1.12 5.045A.5.5 0 0 0 1 5.37v.255a1.375 1.375 0 0 0 2.75 0 .5.5 0 0 1 1 0M1.5 8.5A.5.5 0 0 1 2 9v6h1v-5a1 1 0 0 1 1-1h3a1 1 0 0 1 1 1v5h6V9a.5.5 0 0 1 1 0v6h.5a.5.5 0 0 1 0 1H.5a.5.5 0 0 1 0-1H1V9a.5.5 0 0 1 .5-.5M4 15h3v-5H4zm5-5a1 1 0 0 1 1-1h2a1 1 0 0 1 1 1v3a1 1 0 0 1-1 1h-2a1 1 0 0 1-1-1zm3 0h-2v3h2z"></path>
</symbol>
<symbol fill="currentColor" class="bi bi-tiktok" viewBox="0 0 16 16" id="tiktok">
  <path d="M9 0h1.98c.144.715.54 1.617 1.235 2.512C12.895 3.389 13.797 4 15 4v2c-1.753 0-3.07-.814-4-1.829V11a5 5 0 1 1-5-5v2a3 3 0 1 0 3 3z"></path>
</symbol>
<symbol fill="currentColor" class="bi bi-twitter-x" viewBox="0 0 16 16" id="twitter-x">
  <path d="M12.6.75h2.454l-5.36 6.142L16 15.25h-4.937l-3.867-5.07-4.425 5.07H.316l5.733-6.57L0 .75h5.063l3.495 4.633L12.601.75Zm-.86 13.028h1.36L4.323 2.145H2.865z"></path>
</symbol>
<symbol fill="currentColor" class="bi bi-volume-up-fill" viewBox="0 0 16 16" id="volume-up-fill">
  <path d="M11.536 14.01A8.47 8.47 0 0 0 14.026 8a8.47 8.47 0 0 0-2.49-6.01l-.708.707A7.48 7.48 0 0 1 13.025 8c0 2.071-.84 3.946-2.197 5.303z"></path>
  <path d="M10.121 12.596A6.48 6.48 0 0 0 12.025 8a6.48 6.48 0 0 0-1.904-4.596l-.707.707A5.48 5.48 0 0 1 11.025 8a5.48 5.48 0 0 1-1.61 3.89z"></path>
  <path d="M8.707 11.182A4.5 4.5 0 0 0 10.025 8a4.5 4.5 0 0 0-1.318-3.182L8 5.525A3.5 3.5 0 0 1 9.025 8 3.5 3.5 0 0 1 8 10.475zM6.717 3.55A.5.5 0 0 1 7 4v8a.5.5 0 0 1-.812.39L3.825 10.5H1.5A.5.5 0 0 1 1 10V6a.5.5 0 0 1 .5-.5h2.325l2.363-1.89a.5.5 0 0 1 .529-.06"></path>
</symbol>
<symbol fill="currentColor" class="bi bi-youtube" viewBox="0 0 16 16" id="youtube">
  <path d="M8.051 1.999h.089c.822.003 4.987.033 6.11.335a2.01 2.01 0 0 1 1.415 1.42c.101.38.172.883.22 1.402l.01.104.022.26.008.104c.065.914.073 1.77.074 1.957v.075c-.001.194-.01 1.108-.082 2.06l-.008.105-.009.104c-.05.572-.124 1.14-.235 1.558a2.01 2.01 0 0 1-1.415 1.42c-1.16.312-5.569.334-6.18.335h-.142c-.309 0-1.587-.006-2.927-.052l-.17-.006-.087-.004-.171-.007-.171-.007c-1.11-.049-2.167-.128-2.654-.26a2.01 2.01 0 0 1-1.415-1.419c-.111-.417-.185-.986-.235-1.558L.09 9.82l-.008-.104A31 31 0 0 1 0 7.68v-.123c.002-.215.01-.958.064-1.778l.007-.103.003-.052.008-.104.022-.26.01-.104c.048-.519.119-1.023.22-1.402a2.01 2.01 0 0 1 1.415-1.42c.487-.13 1.544-.21 2.654-.26l.17-.007.172-.006.086-.003.171-.007A100 100 0 0 1 7.858 2zM6.4 5.209v4.818l4.157-2.408z"></path>
</symbol>
</defs>
</svg>
