<?xml version="1.0" encoding="UTF-8"?>
<!-- This file is generated by a script -->
<svg xmlns="http://www.w3.org/2000/svg" xmlns:xlink="http://www.w3.org/1999/xlink" width="0" height="0">
<defs>
<symbol fill="currentColor" class="bi bi-chat-fill" viewBox="0 0 16 16" id="chat-fill">
  <path d="M8 15c4.418 0 8-3.134 8-7s-3.582-7-8-7-8 3.134-8 7c0 1.76.743 3.37 1.97 4.6-.097 1.016-.417 2.13-.771 2.966-.079.186.074.394.273.362 2.256-.37 3.597-.938 4.18-1.234A9 9 0 0 0 8 15"></path>
</symbol>
<symbol fill="currentColor" class="bi bi-chevron-down" viewBox="0 0 16 16" id="chevron-down">
  <path fill-rule="evenodd" d="M1.646 4.646a.5.5 0 0 1 .708 0L8 10.293l5.646-5.647a.5.5 0 0 1 .708.708l-6 6a.5.5 0 0 1-.708 0l-6-6a.5.5 0 0 1 0-.708"></path>
</symbol>
<symbol fill="currentColor" class="bi bi-chevron-left" viewBox="0 0 16 16" id="chevron-left">
  <path fill-rule="evenodd" d="M11.354 1.646a.5.5 0 0 1 0 .708L5.707 8l5.647 5.646a.5.5 0 0 1-.708.708l-6-6a.5.5 0 0 1 0-.708l6-6a.5.5 0 0 1 .708 0"></path>
</symbol>
<symbol fill="currentColor" class="bi bi-chevron-right" viewBox="0 0 16 16" id="chevron-right">
  <path fill-rule="evenodd" d="M4.646 1.646a.5.5 0 0 1 .708 0l6 6a.5.5 0 0 1 0 .708l-6 6a.5.5 0 0 1-.708-.708L10.293 8 4.646 2.354a.5.5 0 0 1 0-.708"></path>
</symbol>
<symbol fill="currentColor" class="bi bi-chevron-up" viewBox="0 0 16 16" id="chevron-up">
  <path fill-rule="evenodd" d="M7.646 4.646a.5.5 0 0 1 .708 0l6 6a.5.5 0 0 1-.708.708L8 5.707l-5.646 5.647a.5.5 0 0 1-.708-.708z"></path>
</symbol>
<symbol fill="currentColor" class="bi bi-compass" viewBox="0 0 16 16" id="compass">
  <path d="M8 16.016a7.5 7.5 0 0 0 1.962-14.74A1 1 0 0 0 9 0H7a1 1 0 0 0-.962 1.276A7.5 7.5 0 0 0 8 16.016m6.5-7.5a6.5 6.5 0 1 1-13 0 6.5 6.5 0 0 1 13 0"></path>
  <path d="m6.94 7.44 4.95-2.83-2.83 4.95-4.949 2.83 2.828-4.95z"></path>
</symbol>
<symbol fill="currentColor" class="bi bi-gear-fill" viewBox="0 0 16 16" id="gear-fill">
  <path d="M9.405 1.05c-.413-1.4-2.397-1.4-2.81 0l-.1.34a1.464 1.464 0 0 1-2.105.872l-.31-.17c-1.283-.698-2.686.705-1.987 1.987l.169.311c.446.82.023 1.841-.872 2.105l-.34.1c-1.4.413-1.4 2.397 0 2.81l.34.1a1.464 1.464 0 0 1 .872 2.105l-.17.31c-.698 1.283.705 2.686 1.987 1.987l.311-.169a1.464 1.464 0 0 1 2.105.872l.1.34c.413 1.4 2.397 1.4 2.81 0l.1-.34a1.464 1.464 0 0 1 2.105-.872l.31.17c1.283.698 2.686-.705 1.987-1.987l-.169-.311a1.464 1.464 0 0 1 .872-2.105l.34-.1c1.4-.413 1.4-2.397 0-2.81l-.34-.1a1.464 1.464 0 0 1-.872-2.105l.17-.31c.698-1.283-.705-2.686-1.987-1.987l-.311.169a1.464 1.464 0 0 1-2.105-.872zM8 10.93a2.929 2.929 0 1 1 0-5.86 2.929 2.929 0 0 1 0 5.858z"></path>
</symbol>
<symbol fill="currentColor" class="bi bi-gift-fill" viewBox="0 0 16 16" id="gift-fill">
  <path d="M3 2.5a2.5 2.5 0 0 1 5 0 2.5 2.5 0 0 1 5 0v.006c0 .07 0 .27-.038.494H15a1 1 0 0 1 1 1v1a1 1 0 0 1-1 1H1a1 1 0 0 1-1-1V4a1 1 0 0 1 1-1h2.038A3 3 0 0 1 3 2.506zm1.068.5H7v-.5a1.5 1.5 0 1 0-3 0c0 .085.002.274.045.43zM9 3h2.932l.023-.07c.043-.156.045-.345.045-.43a1.5 1.5 0 0 0-3 0zm6 4v7.5a1.5 1.5 0 0 1-1.5 1.5H9V7zM2.5 16A1.5 1.5 0 0 1 1 14.5V7h6v9z"></path>
</symbol>
<symbol fill="currentColor" class="bi bi-headphones" viewBox="0 0 16 16" id="headphones">
  <path d="M8 3a5 5 0 0 0-5 5v1h1a1 1 0 0 1 1 1v3a1 1 0 0 1-1 1H3a1 1 0 0 1-1-1V8a6 6 0 1 1 12 0v5a1 1 0 0 1-1 1h-1a1 1 0 0 1-1-1v-3a1 1 0 0 1 1-1h1V8a5 5 0 0 0-5-5"></path>
</symbol>
<symbol fill="currentColor" class="bi bi-mic-fill" viewBox="0 0 16 16" id="mic-fill">
  <path d="M5 3a3 3 0 0 1 6 0v5a3 3 0 0 1-6 0z"></path>
  <path d="M3.5 6.5A.5.5 0 0 1 4 7v1a4 4 0 0 0 8 0V7a.5.5 0 0 1 1 0v1a5 5 0 0 1-4.5 4.975V15h3a.5.5 0 0 1 0 1h-7a.5.5 0 0 1 0-1h3v-2.025A5 5 0 0 1 3 8V7a.5.5 0 0 1 .5-.5"></path>
</symbol>
<symbol fill="currentColor" class="bi bi-mic-mute" viewBox="0 0 16 16" id="mic-mute">
  <path d="M13 8c0 .564-.094 1.107-.266 1.613l-.814-.814A4 4 0 0 0 12 8V7a.5.5 0 0 1 1 0zm-5 4c.818 0 1.578-.245 2.212-.667l.718.719a5 5 0 0 1-2.43.923V15h3a.5.5 0 0 1 0 1h-7a.5.5 0 0 1 0-1h3v-2.025A5 5 0 0 1 3 8V7a.5.5 0 0 1 1 0v1a4 4 0 0 0 4 4m3-9v4.879l-1-1V3a2 2 0 0 0-3.997-.118l-.845-.845A3.001 3.001 0 0 1 11 3"></path>
  <path d="m9.486 10.607-.748-.748A2 2 0 0 1 6 8v-.878l-1-1V8a3 3 0 0 0 4.486 2.607m-7.84-9.253 12 12 .708-.708-12-12z"></path>
</symbol>
<symbol fill="currentColor" class="bi bi-person-circle" viewBox="0 0 16 16" id="person-circle">
  <path d="M11 6a3 3 0 1 1-6 0 3 3 0 0 1 6 0"></path>
  <path fill-rule="evenodd" d="M0 8a8 8 0 1 1 16 0A8 8 0 0 1 0 8m8-7a7 7 0 0 0-5.468 11.37C3.242 11.226 4.805 10 8 10s4.757 1.225 5.468 2.37A7 7 0 0 0 8 1"></path>
</symbol>
<symbol fill="currentColor" class="bi bi-person-fill-add" viewBox="0 0 16 16" id="person-fill-add">
  <path d="M12.5 16a3.5 3.5 0 1 0 0-7 3.5 3.5 0 0 0 0 7m.5-5v1h1a.5.5 0 0 1 0 1h-1v1a.5.5 0 0 1-1 0v-1h-1a.5.5 0 0 1 0-1h1v-1a.5.5 0 0 1 1 0m-2-6a3 3 0 1 1-6 0 3 3 0 0 1 6 0"></path>
  <path d="M2 13c0 1 1 1 1 1h5.256A4.5 4.5 0 0 1 8 12.5a4.5 4.5 0 0 1 1.544-3.393Q8.844 9.002 8 9c-5 0-6 3-6 4"></path>
</symbol>
<symbol fill="currentColor" class="bi bi-plus-circle-fill" viewBox="0 0 16 16" id="plus-circle-fill">
  <path d="M16 8A8 8 0 1 1 0 8a8 8 0 0 1 16 0M8.5 4.5a.5.5 0 0 0-1 0v3h-3a.5.5 0 0 0 0 1h3v3a.5.5 0 0 0 1 0v-3h3a.5.5 0 0 0 0-1h-3z"></path>
</symbol>
<symbol fill="currentColor" class="bi bi-plus-lg" viewBox="0 0 16 16" id="plus-lg">
  <path fill-rule="evenodd" d="M8 2a.5.5 0 0 1 .5.5v5h5a.5.5 0 0 1 0 1h-5v5a.5.5 0 0 1-1 0v-5h-5a.5.5 0 0 1 0-1h5v-5A.5.5 0 0 1 8 2"></path>
</symbol>
<symbol fill="currentColor" class="bi bi-search" viewBox="0 0 16 16" id="search">
  <path d="M11.742 10.344a6.5 6.5 0 1 0-1.397 1.398h-.001q.044.06.098.115l3.85 3.85a1 1 0 0 0 1.415-1.414l-3.85-3.85a1 1 0 0 0-.115-.1zM12 6.5a5.5 5.5 0 1 1-11 0 5.5 5.5 0 0 1 11 0"></path>
</symbol>
<symbol fill="currentColor" class="bi bi-shop" viewBox="0 0 16 16" id="shop">
  <path d="M2.97 1.35A1 1 0 0 1 3.73 1h8.54a1 1 0 0 1 .76.35l2.609 3.044A1.5 1.5 0 0 1 16 5.37v.255a2.375 2.375 0 0 1-4.25 1.458A2.37 2.37 0 0 1 9.875 8 2.37 2.37 0 0 1 8 7.083 2.37 2.37 0 0 1 6.125 8a2.37 2.37 0 0 1-1.875-.917A2.375 2.375 0 0 1 0 5.625V5.37a1.5 1.5 0 0 1 .361-.976zm1.78 4.275a1.375 1.375 0 0 0 2.75 0 .5.5 0 0 1 1 0 1.375 1.375 0 0 0 2.75 0 .5.5 0 0 1 1 0 1.375 1.375 0 1 0 2.75 0V5.37a.5.5 0 0 0-.12-.325L12.27 2H3.73L1.12 5.045A.5.5 0 0 0 1 5.37v.255a1.375 1.375 0 0 0 2.75 0 .5.5 0 0 1 1 0M1.5 8.5A.5.5 0 0 1 2 9v6h1v-5a1 1 0 0 1 1-1h3a1 1 0 0 1 1 1v5h6V9a.5.5 0 0 1 1 0v6h.5a.5.5 0 0 1 0 1H.5a.5.5 0 0 1 0-1H1V9a.5.5 0 0 1 .5-.5M4 15h3v-5H4zm5-5a1 1 0 0 1 1-1h2a1 1 0 0 1 1 1v3a1 1 0 0 1-1 1h-2a1 1 0 0 1-1-1zm3 0h-2v3h2z"></path>
</symbol>
<symbol fill="currentColor" class="bi bi-volume-up-fill" viewBox="0 0 16 16" id="volume-up-fill">
  <path d="M11.536 14.01A8.47 8.47 0 0 0 14.026 8a8.47 8.47 0 0 0-2.49-6.01l-.708.707A7.48 7.48 0 0 1 13.025 8c0 2.071-.84 3.946-2.197 5.303z"></path>
  <path d="M10.121 12.596A6.48 6.48 0 0 0 12.025 8a6.48 6.48 0 0 0-1.904-4.596l-.707.707A5.48 5.48 0 0 1 11.025 8a5.48 5.48 0 0 1-1.61 3.89z"></path>
  <path d="M8.707 11.182A4.5 4.5 0 0 0 10.025 8a4.5 4.5 0 0 0-1.318-3.182L8 5.525A3.5 3.5 0 0 1 9.025 8 3.5 3.5 0 0 1 8 10.475zM6.717 3.55A.5.5 0 0 1 7 4v8a.5.5 0 0 1-.812.39L3.825 10.5H1.5A.5.5 0 0 1 1 10V6a.5.5 0 0 1 .5-.5h2.325l2.363-1.89a.5.5 0 0 1 .529-.06"></path>
</symbol>
</defs>
</svg>
